<svg xmlns="http://www.w3.org/2000/svg" viewBox="0 0 960 540" role="img" aria-labelledby="title desc">
	<title id="title">Skill 热加载生命周期</title>
	<desc id="desc">从上传新版本到延迟卸载旧版本的生命周期。</desc>
	<rect width="960" height="540" fill="#f8fafc"/>
	<text x="58" y="72" fill="#0f172a" font-family="Arial, sans-serif" font-size="32" font-weight="700">热加载要像一次小型发布</text>
	<g font-family="Arial, sans-serif" font-size="20" font-weight="700" text-anchor="middle">
		<rect x="66" y="170" width="130" height="68" rx="14" fill="#ffffff" stroke="#cbd5e1"/>
		<text x="131" y="212" fill="#0f172a">上传</text>
		<rect x="236" y="170" width="130" height="68" rx="14" fill="#e0f2fe" stroke="#38bdf8"/>
		<text x="301" y="212" fill="#075985">校验</text>
		<rect x="406" y="170" width="130" height="68" rx="14" fill="#dcfce7" stroke="#22c55e"/>
		<text x="471" y="212" fill="#166534">影子运行</text>
		<rect x="576" y="170" width="130" height="68" rx="14" fill="#fef3c7" stroke="#f59e0b"/>
		<text x="641" y="212" fill="#92400e">切流</text>
		<rect x="746" y="170" width="130" height="68" rx="14" fill="#ede9fe" stroke="#8b5cf6"/>
		<text x="811" y="212" fill="#5b21b6">观察</text>
		<rect x="406" y="340" width="160" height="76" rx="16" fill="#fee2e2" stroke="#ef4444"/>
		<text x="486" y="386" fill="#991b1b">快速回滚</text>
	</g>
	<g stroke="#94a3b8" stroke-width="4" fill="none" stroke-linecap="round">
		<path d="M196 204h40"/>
		<path d="M366 204h40"/>
		<path d="M536 204h40"/>
		<path d="M706 204h40"/>
		<path d="M811 238v72H486v30"/>
	</g>
</svg>
